<svg width="512" height="512" viewBox="0 0 512 512" fill="none" xmlns="http://www.w3.org/2000/svg">
<g clip-path="url(#clip0_283_357)">
<path d="M9.71289 325.558L12.6567 334.304L20.9146 331.523L25.597 333.509L16.4058 345.437L19.9427 355.939L33.9864 337.46L51.7407 344.781L48.2495 334.414L31.6356 327.914L44.5917 323.551L41.6478 314.806L9.71289 325.558V325.558ZM30.7882 378.214C35.5022 387.342 46.0092 390.59 54.6056 386.151C63.288 381.669 66.6845 371.351 61.9705 362.221C57.2582 353.093 46.7513 349.846 38.1531 354.284C29.4707 358.767 26.0742 369.084 30.7882 378.214ZM38.318 374.433C36.0057 369.955 38.1759 364.927 42.4969 362.695C46.9022 360.42 52.1302 361.521 54.4425 366.002C56.7776 370.523 54.6056 375.553 50.2864 377.783C45.8794 380.056 40.6531 378.956 38.318 374.433V374.433ZM55.1091 414.682C60.1688 420.988 66.7249 422.617 72.0933 418.309C77.0862 414.302 76.0617 409.026 72.5827 401.998C70.5213 397.737 70.3319 396.425 71.5336 395.461C72.5476 394.647 73.9827 394.898 75.381 396.642C77.2266 398.942 78.409 402.261 78.6266 405.991L86.6581 405.461C86.6844 400.804 85.1178 396.391 81.5757 391.977C76.5739 385.746 69.9792 384.758 65.0986 388.674C59.6179 393.074 61.4635 398.604 64.6231 405.154C66.6249 409.342 66.7091 410.675 65.6196 411.551C64.4179 412.514 62.9091 412.017 61.3617 410.089C58.9495 407.086 57.746 403.356 57.7565 399.139L49.6986 399.019C49.3671 404.53 51.4162 410.082 55.1074 414.681L55.1091 414.682ZM78.3792 439.507L85.1809 445.81L93.8528 436.454L117.365 429.696L109.797 422.681L96.3949 426.995L99.7159 413.337L92.0072 406.191L86.9528 430.256L78.3792 439.505V439.507ZM114.29 469.143C119.267 472.566 124.584 473.479 129.149 473.052L137.74 460.558L125.123 451.88L121.249 457.512L126.656 461.231L124.339 464.603C122.684 464.575 121 464.001 119.158 462.735C114.807 459.744 113.921 454.401 117.004 449.919C119.975 445.596 125.353 444.326 129.309 447.049C132.014 448.909 133.317 451.207 134.132 454.221L142.337 451.859C141.182 447.328 138.81 443.475 133.989 440.161C125.486 434.312 114.851 436.347 109.286 444.438C103.449 452.926 105.746 463.27 114.288 469.143H114.29ZM138.532 482.612L146.845 486.722L161.779 456.515L153.465 452.405L138.532 482.612ZM159.442 492.942L168.123 495.778L173.865 478.208L181.64 500.196L189.326 502.708L199.793 470.679L191.112 467.842L185.579 484.771L178.091 463.587L169.909 460.914L159.442 492.943V492.942ZM238.445 511.345C247.884 512.05 254.357 507.754 255.168 496.906L256.559 478.28L247.215 477.582L245.803 496.496C245.452 501.199 242.868 503.227 239.168 502.952C235.47 502.675 233.222 500.191 233.585 495.342L234.98 476.668L225.636 475.97L224.228 494.835C223.443 505.347 229.01 510.638 238.447 511.343L238.445 511.345ZM267.517 511.926L276.58 510.805L274.31 492.459L290.694 509.057L298.717 508.064L294.578 474.622L285.517 475.743L287.704 493.419L271.924 477.424L263.38 478.482L267.519 511.924L267.517 511.926ZM312.408 505.129L321.452 503.073L313.981 470.215L304.939 472.272L312.41 505.129H312.408ZM345.199 495.756L353.164 492.615L353.286 456.089L343.86 459.803L344.644 482.415L329.79 465.349L320.188 469.133L345.201 495.754L345.199 495.756ZM375.551 482.27L398.904 468.689L394.911 461.822L379.451 470.814L376.765 466.194L390.579 458.161L386.876 451.794L373.062 459.828L370.497 455.415L385.749 446.545L381.757 439.679L358.609 453.14L375.549 482.268L375.551 482.27ZM409.107 461.217L416.304 455.442L409.916 447.482L413.069 444.952L424.686 448.714L432.995 442.045L419.448 437.858C421.56 433.879 421.535 429.517 418.311 425.498C416.172 422.833 413.765 421.431 411.009 421.112C407.849 420.747 404.262 421.9 400.293 425.086L388.016 434.94L409.107 461.219V461.217ZM405.335 441.777L400.274 435.47L404.984 431.689C407.395 429.754 409.723 429.616 411.381 431.681C412.977 433.67 412.532 436.003 410.084 437.968L405.337 441.779L405.335 441.777ZM449.944 424.137C455.144 417.947 455.468 411.2 450.198 406.77C445.296 402.653 440.321 404.682 434.105 409.461C430.328 412.312 429.077 412.753 427.897 411.761C426.902 410.926 426.869 409.468 428.307 407.758C430.204 405.502 433.23 403.695 436.846 402.758L434.763 394.982C430.19 395.861 426.165 398.256 422.525 402.589C417.384 408.707 417.697 415.368 422.488 419.395C427.869 423.916 432.935 421.028 438.747 416.656C442.465 413.879 443.758 413.537 444.826 414.435C446.005 415.426 445.812 417.002 444.221 418.896C441.744 421.847 438.318 423.752 434.181 424.561L435.63 432.488C441.1 431.74 446.147 428.652 449.942 424.137H449.944ZM465.579 403.314L470.833 395.672L443.068 376.577L437.812 384.219L465.577 403.314H465.579ZM482.24 376.714L486.33 368.442L463.458 357.135L467.884 348.181L460.549 344.555L447.607 370.734L454.944 374.36L459.368 365.407L482.24 376.712V376.714ZM498.584 339.402L501.465 330.586L489.338 326.623L473.363 308.094L470.158 317.904L479.682 328.272L465.888 330.969L462.623 340.96L486.595 335.485L498.582 339.402H498.584Z" fill="white"/>
<path fill-rule="evenodd" clip-rule="evenodd" d="M506.89 279.734L492.652 299.324L482.766 277.229L506.89 279.734Z" fill="white"/>
<path d="M35.2361 253.045C35.3677 247.848 32.994 244.657 27.0572 241.424L1.69423 227.632L1.43634 237.787L17.0836 245.408L1.05739 252.655L0.79248 263.05L26.0081 250.497C27.1379 251.538 27.3976 252.652 27.3765 253.469C27.352 254.48 27.0239 255.964 26.1257 257.241L32.7695 261.071C34.1747 258.843 35.1554 256.269 35.2379 253.045H35.2361ZM36.2133 224.134L38.2519 215.02L25.7555 212.226L28.3713 200.527L40.8677 203.322L42.9063 194.208L10.0223 186.855L7.98367 195.969L20.2906 198.72L17.6748 210.419L5.36614 207.666L3.32931 216.78L36.2133 224.132V224.134ZM45.0834 187.208L48.1834 179.064L35.0975 160.126L52.8238 166.873L56.1115 158.235L24.6204 146.247L21.5204 154.391L34.6046 173.329L16.8801 166.582L13.5907 175.22L45.0817 187.208H45.0834ZM59.6483 151.74L68.8009 136.968C73.0359 130.135 72.5324 124.273 67.6219 121.231C63.6535 118.772 60.3202 119.765 57.0185 122.533C57.4851 119.312 56.6869 116.212 53.3729 114.159C51.3273 112.891 49.3817 112.649 47.5255 113.084C44.808 113.723 42.3361 115.703 40.1063 119.303L31.0046 133.994L59.6483 151.742V151.74ZM58.0571 140.05L52.7781 136.78L56.5307 130.724C58.1799 128.065 59.9623 127.47 61.5167 128.435C63.2763 129.524 63.3553 131.5 61.8588 133.912L58.0553 140.05H58.0571ZM47.2133 133.331L42.18 130.212L45.3747 125.056C46.8448 122.682 48.5062 122.012 50.0606 122.975C51.8202 124.065 51.801 125.922 50.3062 128.337L47.2133 133.329V133.331ZM78.9289 121.614L96.52 100.682L90.4393 95.5718L78.7938 109.428L74.7043 105.991L85.1095 93.6086L79.471 88.8701L69.0658 101.252L65.1588 97.97L76.6482 84.2981L70.5675 79.1894L53.1308 99.9367L78.9271 121.615L78.9289 121.614ZM100.994 96.477L107.98 90.2788L101.59 83.0771L105.048 80.0105C111.313 74.4508 113.108 67.2614 107.836 61.3193C102.82 55.6667 95.8077 56.0316 89.4341 61.6842L78.6306 71.2684L100.992 96.4753L100.994 96.477ZM96.734 77.6035L90.8235 70.9421L94.1007 68.0351C96.6217 65.8 99.1568 65.6088 101.073 67.7702C102.894 69.8228 102.53 72.4614 100.046 74.6666L96.7323 77.6052L96.734 77.6035ZM140.788 66.5035C147.042 62.4334 148.874 57.393 149.146 51.9896L140.525 51.6264C140.171 54.7878 139.329 57.2878 136.383 59.2053C132.429 61.779 127.492 60.2825 124.736 56.0457C122.004 51.8492 122.608 46.6896 126.562 44.1159C129.265 42.3563 131.976 42.3738 134.902 43.3405L137.743 35.1739C132.983 33.3318 127.764 33.1686 121.995 36.923C113.443 42.4896 111.309 53.0685 116.665 61.2983C122.206 69.8105 132.718 71.7561 140.788 66.5053V66.5035ZM157.886 55.5387L165.993 52.3439L171.176 29.916L178.13 47.5615L186.73 44.1738L174.376 12.8231L166.269 16.0178L161.086 38.4458L154.132 20.8003L145.534 24.188L157.886 55.5387V55.5387ZM201.725 40.0458L210.832 37.9738L205.172 13.0968L215.028 10.8547L213.214 2.87579L184.393 9.43189L186.209 17.4126L196.065 15.1705L201.725 40.0475V40.0458ZM226.084 34.8598L253.354 32.8528L252.772 24.9318L234.719 26.2599L234.328 20.9318L250.458 19.7441L249.917 12.3985L233.788 13.5863L233.412 8.49681L251.223 7.18629L250.64 -0.734719L223.61 1.25299L226.082 34.8581L226.084 34.8598ZM267.696 33.4458L277.008 34.1405L278.908 8.69856L288.989 9.45119L289.598 1.28983L260.123 -0.910156L259.514 7.2512L269.594 8.00383L267.694 33.4458H267.696ZM307.012 38.2528L315.889 41.1545L318.596 32.8739L323.026 30.3213L327.189 44.851L337.85 48.3369L331.282 25.9827L347.91 16.174L337.387 12.7336L322.112 22.1231L326.361 9.12839L317.484 6.22665L307.012 38.2545V38.2528ZM356.54 57.9053C365.861 62.5141 376.329 58.9351 380.617 50.2632C384.948 41.5036 381.478 31.1423 372.157 26.5336C362.836 21.9248 352.368 25.502 348.08 34.1756C343.748 42.9352 347.219 53.2966 356.54 57.9053ZM360.359 50.3966C355.785 48.1352 354.513 42.7808 356.668 38.4212C358.866 33.9774 363.764 31.7791 368.338 34.0423C372.955 36.3247 374.227 41.6808 372.073 46.0387C369.876 50.4825 364.976 52.679 360.359 50.3966ZM390.757 79.4245C396.694 83.9438 402.057 83.9718 407.237 82.4104L404.676 74.1701C401.581 74.9 398.943 74.9473 396.146 72.8193C392.392 69.9614 392.139 64.8088 395.201 60.7877C398.232 56.8036 403.295 55.6369 407.05 58.4948C409.616 60.4474 410.513 63.0053 410.587 66.0877L419.234 66.014C419.367 60.9123 417.765 55.9422 412.288 51.7738C404.167 45.5931 393.488 47.144 387.541 54.958C381.388 63.0404 383.096 73.5947 390.757 79.4262V79.4245ZM407.488 91.1157L417.392 102.279C422.855 108.437 429.646 109.489 435.083 104.666C440.772 99.6191 439.725 92.6332 434.358 86.5841L430.971 82.7666L438.893 75.7385L432.695 68.7526L407.488 91.1139V91.1157ZM419.555 92.8946L425.497 87.6227L428.755 91.2946C430.767 93.563 430.829 95.9542 429.065 97.5191C427.085 99.2753 424.827 98.8349 422.781 96.5297L419.555 92.8928V92.8946ZM428.988 115.351L435.185 122.337L460.392 99.9753L454.193 92.9893L428.986 115.352L428.988 115.351ZM438.841 128.773L443.935 136.6L465.318 122.682L473.458 135.189L480.316 130.724L467.081 110.391L438.839 128.772L438.841 128.773ZM454.074 154.08L457.676 162.015L480.337 166.057L463.065 173.894L466.884 182.31L497.569 168.385L493.967 160.45L471.306 156.408L488.577 148.571L484.758 140.156L454.072 154.08H454.074ZM468.862 189.464L470.934 198.571L483.419 195.731L486.079 207.419L473.593 210.259L475.665 219.366L508.523 211.892L506.451 202.785L494.153 205.582L491.493 193.894L503.791 191.098L501.719 181.991L468.862 189.464V189.464ZM476.441 223.948L477.162 233.743L483.339 235.701L484.293 248.664L478.472 251.553L479.207 261.539L512 244.743L511.34 235.764L476.442 223.948H476.441ZM490.79 237.904L500.623 240.994L491.344 245.441L490.79 237.904V237.904Z" fill="white"/>
<path fill-rule="evenodd" clip-rule="evenodd" d="M34.2181 297.462L18.6059 278.95L10.3375 301.699L34.2181 297.462Z" fill="white"/>
</g>
<defs>
<clipPath id="clip0_283_357">
<rect width="512" height="512" fill="white"/>
</clipPath>
</defs>
</svg>
