<svg width="480" height="480" viewBox="0 0 480 480" fill="none" xmlns="http://www.w3.org/2000/svg">
<g clip-path="url(#clip0_280_314)">
<path fill-rule="evenodd" clip-rule="evenodd" d="M210.744 149.413L144.478 111.035V332.604L336.368 221.82L266.008 181.394V262.501L336.368 302.925V366.889L210.744 294.483V149.413Z" fill="white"/>
<path d="M9.10583 305.211L11.8657 313.41L19.6074 310.803L23.9972 312.665L15.3805 323.847L18.6962 333.693L31.8623 316.369L48.5069 323.232L45.2339 313.513L29.6584 307.42L41.8047 303.329L39.0448 295.13L9.10583 305.211V305.211ZM28.8639 354.576C33.2833 363.133 43.1336 366.178 51.1928 362.016C59.3325 357.814 62.5167 348.142 58.0973 339.582C53.6796 331.025 43.8293 327.981 35.7685 332.142C27.6288 336.344 24.4446 346.017 28.8639 354.576ZM35.9231 351.031C33.7554 346.832 35.7899 342.119 39.8409 340.026C43.9708 337.893 48.8721 338.926 51.0398 343.127C53.229 347.365 51.1928 352.081 47.1435 354.171C43.0119 356.303 38.1123 355.271 35.9231 351.031V351.031ZM51.6648 388.765C56.4082 394.676 62.5546 396.204 67.5874 392.164C72.2683 388.408 71.3078 383.462 68.0463 376.873C66.1137 372.878 65.9361 371.648 67.0628 370.745C68.0134 369.982 69.3588 370.217 70.6696 371.852C72.3999 374.008 73.5084 377.12 73.7124 380.617L81.242 380.12C81.2666 375.753 79.7979 371.617 76.4772 367.479C71.7881 361.637 65.6055 360.711 61.0299 364.382C55.8918 368.507 57.622 373.691 60.5842 379.832C62.4608 383.758 62.5398 385.008 61.5184 385.829C60.3917 386.732 58.9773 386.266 57.5266 384.459C55.2651 381.643 54.1368 378.146 54.1467 374.192L46.5925 374.081C46.2816 379.247 48.2027 384.452 51.6632 388.763L51.6648 388.765ZM73.4805 412.038L79.8571 417.947L87.987 409.176L110.03 402.84L102.934 396.263L90.3702 400.307L93.4837 387.503L86.2567 380.804L81.5183 403.365L73.4805 412.036V412.038ZM107.146 439.822C111.813 443.031 116.798 443.886 121.077 443.486L129.131 431.773L117.303 423.638L113.671 428.917L118.74 432.404L116.567 435.565C115.016 435.539 113.438 435.001 111.711 433.814C107.632 431.01 106.801 426.001 109.691 421.799C112.477 417.746 117.518 416.556 121.227 419.108C123.763 420.852 124.985 423.006 125.748 425.832L133.441 423.618C132.358 419.37 130.135 415.758 125.615 412.651C117.643 407.168 107.673 409.075 102.456 416.661C96.9836 424.618 99.1366 434.315 107.145 439.822H107.146ZM129.873 452.449L137.668 456.302L151.668 427.983L143.873 424.13L129.873 452.449ZM149.477 462.133L157.615 464.792L162.998 448.32L170.288 468.934L177.493 471.289L187.306 441.261L179.167 438.602L173.98 454.473L166.96 434.613L159.289 432.107L149.477 462.134V462.133ZM223.542 479.386C232.391 480.047 238.46 476.019 239.22 465.85L240.524 448.388L231.764 447.733L230.44 465.465C230.111 469.874 227.689 471.776 224.22 471.518C220.753 471.258 218.646 468.929 218.986 464.383L220.294 446.876L211.534 446.222L210.213 463.907C209.478 473.763 214.697 478.723 223.544 479.384L223.542 479.386ZM250.797 479.93L259.294 478.879L257.165 461.68L272.525 477.241L280.047 476.31L276.167 444.958L267.672 446.009L269.723 462.58L254.929 447.585L246.919 448.577L250.799 479.929L250.797 479.93ZM292.882 473.559L301.361 471.631L294.358 440.827L285.881 442.755L292.884 473.559H292.882ZM323.624 464.771L331.091 461.827L331.206 427.584L322.369 431.065L323.104 452.264L309.178 436.264L300.177 439.812L323.625 464.769L323.624 464.771ZM352.079 452.128L373.972 439.396L370.229 432.959L355.735 441.388L353.217 437.057L366.168 429.526L362.696 423.557L349.745 431.088L347.341 426.952L361.64 418.636L357.897 412.199L336.196 424.819L352.078 452.126L352.079 452.128ZM383.538 432.391L390.285 426.977L384.296 419.515L387.252 417.143L398.143 420.669L405.933 414.418L393.232 410.492C395.212 406.761 395.189 402.673 392.166 398.904C390.161 396.406 387.905 395.092 385.321 394.793C382.359 394.451 378.995 395.531 375.275 398.518L363.765 407.756L383.538 432.393V432.391ZM380.002 414.166L375.257 408.253L379.673 404.709C381.933 402.895 384.115 402.765 385.67 404.7C387.166 406.566 386.748 408.753 384.454 410.595L380.003 414.168L380.002 414.166ZM421.822 397.628C426.697 391.826 427.002 385.5 422.061 381.347C417.465 377.487 412.801 379.39 406.974 383.87C403.433 386.543 402.26 386.955 401.153 386.026C400.22 385.243 400.189 383.877 401.538 382.273C403.316 380.158 406.153 378.464 409.543 377.586L407.59 370.296C403.303 371.12 399.53 373.365 396.117 377.428C391.298 383.163 391.591 389.408 396.082 393.182C401.127 397.421 405.877 394.714 411.326 390.615C414.811 388.011 416.023 387.691 417.025 388.533C418.13 389.462 417.949 390.939 416.457 392.715C414.135 395.482 410.923 397.268 407.044 398.026L408.403 405.457C413.531 404.756 418.263 401.862 421.821 397.628H421.822ZM436.48 378.107L441.406 370.942L415.377 353.041L410.449 360.206L436.478 378.107H436.48ZM452.1 353.169L455.934 345.415L434.492 334.814L438.641 326.42L431.765 323.02L419.632 347.563L426.51 350.962L430.658 342.569L452.1 353.168V353.169ZM467.422 318.189L470.123 309.925L458.755 306.209L443.778 288.838L440.773 298.035L449.702 307.755L436.77 310.283L433.709 319.65L456.182 314.517L467.421 318.189H467.422Z" fill="white"/>
<path fill-rule="evenodd" clip-rule="evenodd" d="M475.21 262.251L461.861 280.616L452.593 259.902L475.21 262.251Z" fill="white"/>
<path d="M33.0338 237.229C33.1572 232.358 30.9319 229.366 25.3661 226.335L1.58831 213.405L1.34653 222.925L16.0159 230.07L0.991273 236.864L0.74292 246.609L24.3826 234.841C25.4418 235.816 25.6852 236.861 25.6655 237.627C25.6424 238.575 25.3349 239.966 24.4928 241.163L30.7214 244.754C32.0388 242.665 32.9582 240.252 33.0355 237.229H33.0338ZM33.95 210.126L35.8611 201.581L24.1457 198.961L26.598 187.994L38.3134 190.614L40.2246 182.07L9.39583 175.177L7.48466 183.721L19.0224 186.3L16.5701 197.267L5.03073 194.687L3.1212 203.231L33.95 210.124V210.126ZM42.2657 175.508L45.1719 167.873L32.9039 150.118L49.5222 156.444L52.6045 148.345L23.0816 137.107L20.1754 144.741L32.4418 162.496L15.8251 156.171L12.7412 164.269L42.2641 175.508H42.2657ZM55.9202 142.256L64.5008 128.408C68.4711 122.001 67.9991 116.506 63.3955 113.654C59.6751 111.348 56.5502 112.279 53.4548 114.875C53.8923 111.855 53.1439 108.949 50.037 107.024C48.1193 105.835 46.2953 105.608 44.5552 106.016C42.0075 106.615 39.6901 108.472 37.5996 111.847L29.0668 125.62L55.9202 142.258V142.256ZM54.4285 131.297L49.4795 128.232L52.9975 122.554C54.5436 120.061 56.2146 119.503 57.6719 120.408C59.3215 121.429 59.3955 123.281 57.9926 125.542L54.4268 131.297H54.4285ZM44.2624 124.998L39.5437 122.074L42.5387 117.24C43.917 115.015 45.4746 114.386 46.9318 115.289C48.5815 116.311 48.5634 118.052 47.1621 120.315L44.2624 124.996V124.998ZM73.9958 114.013L90.4875 94.3896L84.7868 89.5985L73.8691 102.589L70.0353 99.3666L79.7902 87.7581L74.504 83.3157L64.7491 94.9242L61.0863 91.8469L71.8576 79.0295L66.157 74.2401L49.8101 93.6906L73.9941 114.015L73.9958 114.013ZM94.6815 90.4472L101.231 84.6364L95.2407 77.8848L98.4825 75.0098C104.356 69.7977 106.038 63.0576 101.096 57.4869C96.3937 52.1876 89.8197 52.5297 83.8444 57.829L73.7162 66.8141L94.6799 90.4456L94.6815 90.4472ZM90.6881 72.7532L85.147 66.5082L88.2194 63.7829C90.5829 61.6875 92.9595 61.5082 94.7555 63.5345C96.4628 65.4589 96.1223 67.9325 93.7934 70L90.6865 72.7549L90.6881 72.7532ZM131.989 62.347C137.852 58.5313 139.569 53.806 139.824 48.7402L131.742 48.3998C131.41 51.3636 130.62 53.7073 127.859 55.505C124.152 57.9178 119.523 56.5148 116.94 52.5428C114.379 48.6086 114.945 43.7715 118.652 41.3587C121.186 39.709 123.727 39.7255 126.471 40.6317L129.134 32.9755C124.671 31.2485 119.778 31.0956 114.371 34.6153C106.353 39.834 104.353 49.7517 109.374 57.4671C114.568 65.4474 124.423 67.2714 131.989 62.3487V62.347ZM148.018 52.0675L155.619 49.0724L160.477 28.0462L166.997 44.5889L175.059 41.4129L163.477 12.0217L155.877 15.0167L151.018 36.0429L144.499 19.5002L136.438 22.6762L148.018 52.0675V52.0675ZM189.117 37.5429L197.655 35.6005L192.349 12.2782L201.589 10.1763L199.888 2.69605L172.869 8.8424L174.571 16.3243L183.811 14.2223L189.117 37.5445V37.5429ZM211.954 32.6811L237.52 30.7995L236.973 23.3736L220.049 24.6186L219.682 19.6236L234.804 18.5101L234.297 11.6236L219.176 12.7371L218.824 7.96576L235.521 6.73715L234.975 -0.688799L209.635 1.17468L211.952 32.6794L211.954 32.6811ZM250.965 31.3554L259.695 32.0067L261.477 8.1549L270.927 8.86049L271.498 1.20922L243.865 -0.853271L243.294 6.798L252.745 7.50359L250.964 31.3554H250.965ZM287.823 35.862L296.146 38.5824L298.684 30.8193L302.837 28.4262L306.739 42.0478L316.735 45.3159L310.577 24.3588L326.165 15.1631L316.3 11.9378L301.98 20.7404L305.963 8.55786L297.641 5.83748L287.823 35.8636V35.862ZM334.256 54.2862C342.994 58.6069 352.808 55.2517 356.828 47.1218C360.889 38.9097 357.636 29.1959 348.897 24.8752C340.159 20.5545 330.345 23.9081 326.325 32.0396C322.264 40.2518 325.517 49.9655 334.256 54.2862ZM337.836 47.2468C333.549 45.1267 332.356 40.107 334.376 36.0199C336.437 31.8538 341.029 29.7929 345.317 31.9146C349.646 34.0544 350.838 39.0758 348.818 43.1613C346.759 47.3274 342.165 49.3866 337.836 47.2468ZM366.335 74.4605C371.9 78.6973 376.928 78.7236 381.785 77.2598L379.384 69.5345C376.482 70.2187 374.009 70.2631 371.387 68.2681C367.867 65.5888 367.631 60.7582 370.501 56.9885C373.343 53.2533 378.089 52.1596 381.609 54.8389C384.015 56.6694 384.856 59.0675 384.925 61.9572L393.032 61.8882C393.157 57.1053 391.655 52.4458 386.52 48.5379C378.907 42.7435 368.895 44.1975 363.32 51.5231C357.552 59.1004 359.152 68.995 366.335 74.4621V74.4605ZM382.02 85.4209L391.305 95.8863C396.426 101.659 402.793 102.646 407.89 98.1248C413.224 93.3929 412.242 86.8436 407.211 81.1726L404.035 77.5937L411.463 71.0049L405.652 64.4556L382.02 85.4193V85.4209ZM393.333 87.0887L398.903 82.1463L401.958 85.5887C403.844 87.7153 403.902 89.9571 402.249 91.4242C400.392 93.0706 398.275 92.6577 396.357 90.4966L393.333 87.087V87.0887ZM402.176 108.141L407.986 114.691L431.617 93.7268L425.806 87.1775L402.175 108.143L402.176 108.141ZM411.413 120.725L416.19 128.062L436.235 115.015L443.867 126.74L450.296 122.554L437.888 103.492L411.412 120.723L411.413 120.725ZM425.694 144.45L429.071 151.889L450.316 155.679L434.124 163.026L437.704 170.916L466.47 157.861L463.094 150.422L441.849 146.633L458.041 139.286L454.461 131.396L425.693 144.45H425.694ZM439.558 177.623L441.5 186.161L453.206 183.498L455.699 194.455L443.994 197.118L445.936 205.655L476.74 198.649L474.798 190.111L463.268 192.733L460.775 181.776L472.304 179.154L470.362 170.616L439.558 177.623V177.623ZM446.663 209.951L447.339 219.134L453.13 220.97L454.025 233.122L448.568 235.831L449.257 245.193L480 229.446L479.382 221.029L446.665 209.951H446.663ZM460.115 223.035L469.334 225.932L460.635 230.101L460.115 223.035V223.035Z" fill="white"/>
<path fill-rule="evenodd" clip-rule="evenodd" d="M32.0795 278.871L17.443 261.516L9.69141 282.843L32.0795 278.871Z" fill="white"/>
</g>
<defs>
<clipPath id="clip0_280_314">
<rect width="480" height="480" fill="white"/>
</clipPath>
</defs>
</svg>
