<svg width="1266" height="256" viewBox="0 0 1266 256" fill="none" xmlns="http://www.w3.org/2000/svg">
<g clip-path="url(#clip0_409_357)">
<path d="M2.25977 106.38C2.25977 106.932 2.70748 107.38 3.25977 107.38H30.243C30.7953 107.38 31.243 106.932 31.243 106.38V76.7076C31.243 76.1553 31.6907 75.7076 32.243 75.7076H43.406C43.7407 75.7076 44.0533 75.8751 44.2386 76.1538L64.7102 106.934C64.8956 107.213 65.2081 107.38 65.5429 107.38H96.576C97.3802 107.38 97.8554 106.479 97.4012 105.815L73.5227 70.9269C86.5203 65.3991 95.036 54.7919 95.036 38.8063C95.036 28.199 91.8987 20.1315 85.7734 14.0062C78.7516 6.98445 67.6962 2.8013 51.7106 2.8013H3.25977C2.70748 2.8013 2.25977 3.24901 2.25977 3.8013V106.38ZM32.243 52.9991C31.6907 52.9991 31.243 52.5514 31.243 51.9991V28.9002C31.243 28.3479 31.6907 27.9002 32.243 27.9002H50.2166C59.9275 27.9002 65.9034 32.0833 65.9034 40.3002C65.9034 48.2183 60.2263 52.9991 50.366 52.9991H32.243ZM150.724 109.173C176.122 109.173 193.004 96.474 193.004 75.11C193.004 55.2401 178.064 47.4714 154.011 42.2424C139.519 38.9557 135.934 36.8641 135.934 32.0833C135.934 28.0496 139.37 25.0616 146.392 25.0616C155.39 25.0616 165.517 28.4457 174.854 34.8028C175.309 35.1129 175.931 35.0063 176.25 34.5566L189.621 15.6709C189.927 15.2393 189.844 14.6433 189.426 14.3184C178.209 5.58508 164.533 1.00852 147.139 1.00852C122.04 1.00852 106.652 15.052 106.652 34.4737C106.652 56.2858 123.833 62.5606 146.093 67.6401C160.286 70.9269 163.722 73.3172 163.722 77.6498C163.722 82.4305 159.539 85.1197 151.77 85.1197C139.969 85.1197 128.735 80.9991 118.625 73.1737C118.196 72.8414 117.578 72.9025 117.23 73.3188L102.343 91.1009C101.996 91.5145 102.04 92.1289 102.448 92.4822C115.23 103.562 132.545 109.173 150.724 109.173ZM254.159 109.322C283.889 109.322 303.162 94.5318 303.162 60.7678V3.8013C303.162 3.24901 302.714 2.8013 302.162 2.8013H274.73C274.178 2.8013 273.73 3.24901 273.73 3.8013V61.6642C273.73 76.3052 266.111 83.1775 254.458 83.1775C242.805 83.1775 235.186 76.0064 235.186 60.9172V3.8013C235.186 3.24902 234.738 2.8013 234.186 2.8013H206.754C206.202 2.8013 205.754 3.24901 205.754 3.8013V61.5148C205.754 94.233 224.429 109.322 254.159 109.322ZM320.315 106.38C320.315 106.932 320.762 107.38 321.315 107.38H348.298C348.85 107.38 349.298 106.932 349.298 106.38V80.7223C349.298 80.4755 349.389 80.2374 349.554 80.0538L359.905 68.5365L385.902 106.941C386.088 107.215 386.398 107.38 386.73 107.38H419.109C419.914 107.38 420.389 106.477 419.933 105.814L380.515 48.4123C380.255 48.0347 380.286 47.5292 380.589 47.1854L418.202 4.4621C418.771 3.81616 418.312 2.8013 417.452 2.8013H385.766C385.472 2.8013 385.193 2.93037 385.003 3.15427L349.298 45.2304V3.8013C349.298 3.24901 348.85 2.8013 348.298 2.8013H321.315C320.762 2.8013 320.315 3.24901 320.315 3.8013V106.38ZM473.863 109.472C506.133 109.472 530.336 85.1197 530.336 55.0907C530.336 24.7628 506.432 0.709717 474.162 0.709717C441.892 0.709717 417.689 25.0616 417.689 55.0907C417.689 85.4185 441.593 109.472 473.863 109.472ZM474.162 83.3269C458.326 83.3269 447.42 70.1799 447.42 55.0907C447.42 39.7026 458.027 26.8544 473.863 26.8544C489.849 26.8544 500.755 40.0014 500.755 55.0907C500.755 70.4787 490.148 83.3269 474.162 83.3269ZM586.519 109.173C611.916 109.173 628.798 96.474 628.798 75.11C628.798 55.2401 613.859 47.4714 589.805 42.2424C575.314 38.9557 571.728 36.8641 571.728 32.0833C571.728 28.0496 575.164 25.0616 582.186 25.0616C591.185 25.0616 601.311 28.4457 610.648 34.8028C611.104 35.1129 611.726 35.0063 612.044 34.5566L625.416 15.6709C625.721 15.2393 625.638 14.6433 625.221 14.3184C614.004 5.58508 600.328 1.00852 582.933 1.00852C557.834 1.00852 542.446 15.052 542.446 34.4737C542.446 56.2858 559.627 62.5606 581.887 67.6401C596.08 70.9269 599.516 73.3172 599.516 77.6498C599.516 82.4305 595.333 85.1197 587.564 85.1197C575.763 85.1197 564.53 80.9991 554.419 73.1737C553.99 72.8414 553.373 72.9025 553.024 73.3188L538.137 91.1009C537.791 91.5145 537.834 92.1289 538.242 92.4822C551.024 103.562 568.34 109.173 586.519 109.173ZM668.548 106.38C668.548 106.932 668.995 107.38 669.548 107.38H696.68C697.233 107.38 697.68 106.932 697.68 106.38V68.071C697.68 67.8869 697.731 67.7064 697.827 67.5493L736.49 4.32299C736.897 3.65664 736.418 2.8013 735.637 2.8013H705.583C705.223 2.8013 704.891 2.99439 704.713 3.307L683.338 40.8978L662.112 3.30958C661.934 2.99552 661.602 2.8013 661.241 2.8013H630.585C629.805 2.8013 629.326 3.65396 629.73 4.32038L668.402 67.9985C668.497 68.155 668.548 68.3345 668.548 68.5176V106.38ZM789.894 109.472C808.66 109.472 823.919 102.602 834.947 93.6345C835.179 93.4461 835.311 93.1636 835.311 92.865V47.2762C835.311 46.7239 834.863 46.2762 834.311 46.2762H788.205C787.653 46.2762 787.205 46.7239 787.205 47.2762V66.4907C787.205 67.043 787.653 67.4907 788.205 67.4907H806.822C807.374 67.4907 807.822 67.9384 807.822 68.4907V79.6492C807.822 79.9864 807.653 80.3022 807.367 80.4805C803.114 83.1301 797.867 84.5221 791.089 84.5221C774.506 84.5221 762.703 72.4209 762.703 55.5389C762.703 39.2545 774.357 26.5556 789.446 26.5556C799.398 26.5556 806.705 29.8977 813.92 35.7752C814.349 36.1251 814.982 36.0696 815.337 35.6436L831.098 16.7026C831.446 16.2837 831.395 15.662 830.979 15.311C820.082 6.13509 807.26 0.709717 789.296 0.709717C756.877 0.709717 732.973 24.6134 732.973 55.0907C732.973 87.0619 757.325 109.472 789.894 109.472ZM851.976 106.38C851.976 106.932 852.424 107.38 852.976 107.38H880.109C880.661 107.38 881.109 106.932 881.109 106.38V3.8013C881.109 3.24902 880.661 2.8013 880.109 2.8013H852.976C852.424 2.8013 851.976 3.24901 851.976 3.8013V106.38ZM900.255 106.38C900.255 106.932 900.703 107.38 901.255 107.38H927.939C928.492 107.38 928.939 106.932 928.939 106.38V50.0111L973.309 106.994C973.499 107.238 973.79 107.38 974.098 107.38H998.007C998.559 107.38 999.007 106.932 999.007 106.38V3.8013C999.007 3.24902 998.559 2.8013 998.007 2.8013H971.323C970.77 2.8013 970.323 3.24901 970.323 3.8013V58.0786L927.596 3.18707C927.407 2.94365 927.116 2.8013 926.807 2.8013H901.255C900.703 2.8013 900.255 3.24901 900.255 3.8013V106.38ZM1014.72 92.8137C1014.72 100.858 1021.24 107.38 1029.28 107.38H1029.73C1037.78 107.38 1044.3 100.858 1044.3 92.8137V92.8137C1044.3 84.7689 1037.78 78.2474 1029.73 78.2474H1029.28C1021.24 78.2474 1014.72 84.7689 1014.72 92.8137V92.8137ZM1060.01 106.38C1060.01 106.932 1060.46 107.38 1061.01 107.38H1087.99C1088.55 107.38 1088.99 106.932 1088.99 106.38V76.7076C1088.99 76.1553 1089.44 75.7076 1089.99 75.7076H1101.16C1101.49 75.7076 1101.8 75.8751 1101.99 76.1538L1122.46 106.934C1122.65 107.213 1122.96 107.38 1123.29 107.38H1154.33C1155.13 107.38 1155.61 106.479 1155.15 105.815L1131.27 70.9269C1144.27 65.3991 1152.79 54.7919 1152.79 38.8063C1152.79 28.199 1149.65 20.1315 1143.52 14.0062C1136.5 6.98445 1125.45 2.8013 1109.46 2.8013H1061.01C1060.46 2.8013 1060.01 3.24901 1060.01 3.8013V106.38ZM1089.99 52.9991C1089.44 52.9991 1088.99 52.5514 1088.99 51.9991V28.9002C1088.99 28.3479 1089.44 27.9002 1089.99 27.9002H1107.97C1117.68 27.9002 1123.65 32.0833 1123.65 40.3002C1123.65 48.2183 1117.98 52.9991 1108.12 52.9991H1089.99ZM1214.45 109.322C1244.18 109.322 1263.45 94.5318 1263.45 60.7678V3.8013C1263.45 3.24901 1263.01 2.8013 1262.45 2.8013H1235.02C1234.47 2.8013 1234.02 3.24901 1234.02 3.8013V61.6642C1234.02 76.3052 1226.4 83.1775 1214.75 83.1775C1203.1 83.1775 1195.48 76.0064 1195.48 60.9172V3.8013C1195.48 3.24902 1195.03 2.8013 1194.48 2.8013H1167.05C1166.49 2.8013 1166.05 3.24901 1166.05 3.8013V61.5148C1166.05 94.233 1184.72 109.322 1214.45 109.322Z" fill="white"/>
</g>
<path d="M16.7553 242.701H22.9492V206.875H37.6397V201.449H2.0647V206.875H16.7553V242.701ZM64.4798 243.659C72.2619 243.659 77.2646 240.547 81.3939 235.919L77.5823 232.488C74.2471 235.999 70.2767 238.313 64.6387 238.313C57.4125 238.313 51.0598 233.286 50.1863 224.588H82.7438C82.8232 223.631 82.8232 222.993 82.8232 222.434C82.8232 210.306 75.8353 200.571 63.6858 200.571C52.3303 200.571 43.9924 210.146 43.9924 222.115C43.9924 234.961 53.2038 243.659 64.4798 243.659ZM50.1863 219.641C51.0598 211.662 56.4596 205.758 63.5269 205.758C71.6266 205.758 75.9147 212.141 76.6294 219.641H50.1863ZM89.7951 242.701H96.6242L109.409 225.865L122.114 242.701H129.182L112.982 221.556L128.546 201.449H121.717L109.568 217.407L97.4183 201.449H90.4304L105.915 221.716L89.7951 242.701ZM139.125 242.701H145.24V224.668H168.903V242.701H175.018V201.449H168.903V219.242H145.24V201.449H139.125V242.701ZM207.418 243.659C219.806 243.659 228.937 233.765 228.937 222.115C228.937 210.306 219.886 200.571 207.577 200.571C195.189 200.571 186.137 210.465 186.137 222.115C186.137 233.924 195.11 243.659 207.418 243.659ZM207.577 238.153C198.922 238.153 192.41 230.972 192.41 222.115C192.41 213.258 198.525 205.997 207.418 205.997C216.074 205.997 222.664 213.258 222.664 222.115C222.664 230.972 216.471 238.153 207.577 238.153ZM238.03 243.34C245.812 243.34 251.608 239.988 251.608 207.832V206.875H268.761V242.701H274.875V201.449H245.812V204.88C245.812 235.839 241.682 237.994 236.759 237.994C236.044 237.994 234.615 237.674 233.821 237.435L233.106 242.701C234.377 243.021 236.68 243.34 238.03 243.34ZM307.3 243.659C319.688 243.659 328.82 233.765 328.82 222.115C328.82 210.306 319.767 200.571 307.459 200.571C295.071 200.571 286.019 210.465 286.019 222.115C286.019 233.924 294.992 243.659 307.3 243.659ZM307.459 238.153C298.804 238.153 292.292 230.972 292.292 222.115C292.292 213.258 298.407 205.997 307.3 205.997C315.956 205.997 322.547 213.258 322.547 222.115C322.547 230.972 316.353 238.153 307.459 238.153ZM339.895 242.701H346.01V206.875H367.768V201.449H339.895V242.701ZM376.653 242.701H382.529L406.987 210.066V242.701H413.101V201.449H407.146L382.767 234.084V201.449H376.653V242.701ZM426.748 242.701H432.625L457.082 210.066V242.701H463.197V201.449H457.241L432.863 234.084V201.449H426.748V242.701ZM518.423 252.995H523.426L524.538 242.701H557.731V252.995H562.813L563.766 237.275H557.572V201.449H528.35V208.63C528.35 222.514 526.205 231.131 522.87 237.275H518.423V252.995ZM529.382 237.275C532.241 231.929 534.226 222.833 534.226 212.62V206.875H551.457V237.275H529.382ZM572.15 242.701H578.026L602.484 210.066V242.701H608.598V201.449H602.643L578.264 234.084V201.449H572.15V242.701ZM635.269 243.659C645.433 243.659 651.547 237.834 651.547 231.211C651.547 225.785 648.451 222.673 643.924 221.078C647.418 219.641 650.515 216.689 650.515 211.582C650.515 205.199 644.877 200.571 635.666 200.571C629.631 200.571 624.072 202.406 619.784 205.758L622.802 210.066C626.375 207.194 631.219 205.917 635.269 205.917C640.351 205.917 644.163 208.231 644.163 212.061C644.163 216.37 640.43 219.163 635.031 219.163H629.472V224.19H634.951C641.621 224.19 645.274 226.823 645.274 230.972C645.274 235.759 640.43 238.313 635.11 238.313C630.187 238.313 625.502 236.478 621.372 232.967L618.275 237.515C623.278 241.584 628.757 243.659 635.269 243.659ZM675.11 243.579C682.336 243.579 687.021 240.228 689.88 236.557V242.701H695.915V217.487C695.915 212.221 694.485 208.231 691.627 205.359C688.689 202.406 684.162 200.81 678.366 200.81C672.331 200.81 667.963 202.247 663.437 204.321L665.263 209.348C669.075 207.593 672.886 206.396 677.73 206.396C685.433 206.396 689.88 210.226 689.88 217.567V218.843C686.227 217.806 682.574 217.088 677.333 217.088C666.931 217.088 659.784 221.716 659.784 230.573C659.784 239.19 667.407 243.579 675.11 243.579ZM676.301 238.632C670.742 238.632 665.978 235.6 665.978 230.413C665.978 225.307 670.345 221.955 677.969 221.955C682.971 221.955 686.942 222.833 689.959 223.711V227.541C689.959 234.084 683.845 238.632 676.301 238.632ZM708.867 242.701H714.744L739.201 210.066V242.701H745.316V201.449H739.36L714.982 234.084V201.449H708.867V242.701ZM726.893 195.544C732.849 195.544 737.137 191.475 738.09 185.809L733.881 184.932C732.928 188.363 730.784 190.517 726.893 190.517C723.002 190.517 720.858 188.363 719.905 184.932L715.696 185.809C716.649 191.475 720.937 195.544 726.893 195.544ZM758.961 242.701H765.075V224.668H788.739V242.701H794.854V201.449H788.739V219.242H765.075V201.449H758.961V242.701ZM856.128 242.701H862.005L886.462 210.066V242.701H892.577V201.449H886.621L862.243 234.084V201.449H856.128V242.701ZM924.726 243.659C932.429 243.659 937.352 240.308 941.481 235.68L937.432 231.929C934.176 235.44 930.285 238.153 925.044 238.153C916.468 238.153 909.956 231.052 909.956 222.115C909.956 213.098 916.309 205.997 924.647 205.997C930.205 205.997 934.017 208.63 937.273 212.061L941.164 207.912C937.352 203.843 932.508 200.571 924.726 200.571C912.736 200.571 903.683 210.465 903.683 222.115C903.683 233.844 912.736 243.659 924.726 243.659ZM951.591 242.701H957.705V232.727L966.361 223.791L980.972 242.701H988.198L970.569 219.322L987.722 201.449H980.178L957.705 225.227V201.449H951.591V242.701ZM1003 255.707C1009.19 255.707 1013.16 252.596 1016.65 244.058L1033.89 201.449H1027.38L1014.19 235.839L999.264 201.449H992.515L1011.18 242.542C1008.71 248.367 1006.41 250.282 1002.76 250.282C1000.14 250.282 998.312 249.803 996.326 248.766L994.262 253.633C997.041 254.989 999.582 255.707 1003 255.707ZM1062.06 243.659C1069.77 243.659 1074.69 240.308 1078.82 235.68L1074.77 231.929C1071.51 235.44 1067.62 238.153 1062.38 238.153C1053.8 238.153 1047.29 231.052 1047.29 222.115C1047.29 213.098 1053.65 205.997 1061.98 205.997C1067.54 205.997 1071.35 208.63 1074.61 212.061L1078.5 207.912C1074.69 203.843 1069.85 200.571 1062.06 200.571C1050.07 200.571 1041.02 210.465 1041.02 222.115C1041.02 233.844 1050.07 243.659 1062.06 243.659ZM1107.43 243.659C1115.13 243.659 1120.05 240.308 1124.18 235.68L1120.13 231.929C1116.88 235.44 1112.99 238.153 1107.75 238.153C1099.17 238.153 1092.66 231.052 1092.66 222.115C1092.66 213.098 1099.01 205.997 1107.35 205.997C1112.91 205.997 1116.72 208.63 1119.97 212.061L1123.87 207.912C1120.05 203.843 1115.21 200.571 1107.43 200.571C1095.44 200.571 1086.38 210.465 1086.38 222.115C1086.38 233.844 1095.44 243.659 1107.43 243.659ZM1144.22 242.701H1150.41V206.875H1165.1V201.449H1129.53V206.875H1144.22V242.701ZM1174 242.701H1194.56C1203.62 242.701 1209.49 238.393 1209.49 231.451C1209.49 225.626 1205.36 222.594 1200.44 221.237C1203.85 219.801 1207.27 217.168 1207.27 211.742C1207.27 205.518 1202.03 201.449 1193.85 201.449H1174V242.701ZM1180.11 237.435V224.11H1192.98C1199.65 224.11 1203.22 226.504 1203.22 230.493C1203.22 234.802 1199.65 237.435 1193.77 237.435H1180.11ZM1180.11 219.163V206.715H1192.9C1198.22 206.715 1201.07 209.109 1201.07 212.54C1201.07 216.849 1197.66 219.163 1192.74 219.163H1180.11ZM1239.26 243.659C1251.65 243.659 1260.78 233.765 1260.78 222.115C1260.78 210.306 1251.73 200.571 1239.42 200.571C1227.03 200.571 1217.98 210.465 1217.98 222.115C1217.98 233.924 1226.96 243.659 1239.26 243.659ZM1239.42 238.153C1230.77 238.153 1224.26 230.972 1224.26 222.115C1224.26 213.258 1230.37 205.997 1239.26 205.997C1247.92 205.997 1254.51 213.258 1254.51 222.115C1254.51 230.972 1248.32 238.153 1239.42 238.153Z" fill="white"/>
<ellipse cx="493.714" cy="224" rx="9.14285" ry="9.14286" fill="white"/>
<ellipse cx="825.143" cy="224" rx="9.14285" ry="9.14286" fill="white"/>
<defs>
<clipPath id="clip0_409_357">
<rect width="1265.22" height="109.714" fill="white"/>
</clipPath>
</defs>
</svg>
